<?xml version="1.0" encoding="UTF-8"?>
<svg id="logo" xmlns="http://www.w3.org/2000/svg" version="1.1" viewBox="0 0 650 173.68">
  <!-- Generator: Adobe Illustrator 29.6.0, SVG Export Plug-In . SVG Version: 2.1.1 Build 207)  -->
  <path d="M610.91,14.16v108.81l-58.7-99.5-1.43-2.86h0c-5.01-7.87-12.89-11.45-23.62-11.45s-24.34,8.59-24.34,22.91v128.85h32.21V52.1c20.04,34.36,40.09,68,60.13,102.36h0c5.01,7.87,13.6,11.45,23.62,11.45s24.34-8.59,24.34-22.91V14.16h-32.21Z" fill="#fff"/>
  <path d="M408.33,9.15c-36.51,0-51.54,16.46-59.41,62.99l-15.03,89.48h32.21l7.16-42.23h70.15l7.16,42.23h32.21l-15.03-89.48c-7.87-46.53-22.91-62.99-59.41-62.99M377.55,90.75l2.86-18.61c4.3-25.05,10.74-33.64,27.2-33.64s22.91,8.59,27.2,33.64l2.86,18.61h-60.85.73Z" fill="#fff"/>
  <path d="M48.98,59.26h0c9.31-14.32,25.05-22.19,43.67-21.48,17.9,1.43,32.93,10.74,40.8,25.77h24.34v-23.62C142.75,17.74,117.7,4.14,90.49,4.14h0C53.99,4.14,21.77,28.47,11.75,63.55h35.79c.72-1.43,2.15-3.58,2.86-5.01" fill="#fff"/>
  <path d="M157.07,80.73h-76.59v27.92h47.96v9.31c-12.17,18.61-32.93,23.62-50.82,18.61-20.76-5.73-40.8-25.05-36.51-55.12H7.46c-2.86,22.91,5.01,45.81,20.76,63.71,15.75,17.18,37.94,25.05,60.85,24.34h.72c19.33,0,30.78-10.74,37.94-17.18v9.31h29.35v-80.89h0Z" fill="#fff"/>
  <path d="M318.13,62.12c0-30.78-13.6-48.68-44.38-48.68h-87.33v147.46h32.21v-52.97h32.21l31.5,52.97h35.79l-34.36-54.4c24.34-5.01,34.36-18.61,34.36-44.38M265.16,80.73h-46.53v-38.66h46.53c12.17,0,20.76,7.87,20.76,19.33s-9.31,19.33-20.76,19.33" fill="#fff"/>
</svg>